<svg width="29" height="28" viewBox="0 0 29 28" fill="none" xmlns="http://www.w3.org/2000/svg">
<g clip-path="url(#clip0_806_9833)">
<path d="M18.9389 0H11.0582C5.50223 0 0.99707 4.50469 0.99707 10.06V17.94C0.99707 23.4953 5.50223 28 11.0582 28H18.9389C24.4948 28 29 23.4953 29 17.94V10.06C29 4.50469 24.4948 0 18.9389 0ZM11.5179 17.1914C11.0844 17.2702 10.651 17.3227 10.1913 17.3227H6.30344C4.96371 17.3227 3.88668 16.2458 3.88668 14.9062C3.88668 13.7373 4.71415 12.7655 5.81745 12.5422C5.97507 12.5159 6.13269 12.4897 6.30344 12.4897H10.1913C10.1913 12.4897 10.2438 12.4897 10.2701 12.4897C11.5835 12.4503 12.6212 11.3865 12.6212 10.06V6.63227C12.6212 5.30582 13.6982 4.21576 15.0379 4.21576C16.3777 4.21576 17.4547 5.29268 17.4547 6.63227V10.0732C17.4547 11.2946 17.1263 12.4371 16.5878 13.4484C16.5615 13.4878 16.5353 13.5403 16.509 13.5797C16.3514 13.8687 16.1675 14.1576 15.9705 14.4203C15.9442 14.4465 15.9179 14.4728 15.8917 14.5122C15.5239 14.985 15.0905 15.4184 14.6176 15.7861C14.5388 15.8518 14.46 15.9174 14.3812 15.9831C14.2105 16.1013 14.0266 16.2064 13.8427 16.3114C13.6457 16.4296 13.4486 16.5347 13.2385 16.6398C13.0677 16.7186 12.9101 16.7842 12.7394 16.8499C12.4767 16.955 12.214 17.0338 11.9382 17.0994C11.7937 17.1388 11.6492 17.1782 11.5047 17.2045L11.5179 17.1914ZM15.0117 23.7711C13.6719 23.7711 12.5949 22.6942 12.5949 21.3546C12.5949 20.015 13.6719 18.9381 15.0117 18.9381C16.3514 18.9381 17.4284 20.015 17.4284 21.3546C17.4284 22.6942 16.3514 23.7711 15.0117 23.7711ZM23.6936 17.3227H15.4188C17.0344 16.1538 18.2296 14.4597 18.7944 12.4897H23.6936C25.0333 12.4897 26.1104 13.5666 26.1104 14.9062C26.1104 16.2458 25.0333 17.3227 23.6936 17.3227Z" fill="#33A980"/>
</g>
<defs>
<clipPath id="clip0_806_9833">
<rect width="29" height="28" fill="white"/>
</clipPath>
</defs>
</svg>
